<svg xmlns="http://www.w3.org/2000/svg" xmlns:xlink="http://www.w3.org/1999/xlink" version="1.1" x="0px" y="0px" width="100px" height="100px" viewBox="5.0 -10.0 100.0 135.0" enable-background="new 0 0 100 100" xml:space="preserve">
<g id="Captions">
</g>
<g id="Your_Icon">
	<path d="M77.393,82.291h-3.195c1.197,0,2.168-0.968,2.168-2.169c0-1.196-0.971-2.167-2.168-2.167h-1.676   c-0.383-4.032,0.395-7.485,1.139-10.465c1.016-4.065,4.473-13.756,5.082-15.789c0.609-2.032,4.742-12.197-0.949-27.309   S56.854,6.368,56.854,6.368l-6.71-6.235l-0.034,6.167c-4.217,0.61-5.793,1.626-5.793,1.626l1.017,3.863l-9.351,2.507l-0.61,3.93   L19.652,32.795c1.017,3.593-1.152,6.574-1.152,6.574l3.592,4.133c0.95-0.204,2.711,0.406,2.711,0.406   c3.116,1.355,8.131,0,10.571-2.845c2.438-2.846,5.422-2.168,8.809-0.813c3.389,1.354,9.895-0.272,9.895-0.272   S40.659,53.397,36.05,63.425c-2.562,5.577-2.525,10.901-1.989,14.53h-2.088c-1.197,0-2.168,0.971-2.168,2.167   c0,1.201,0.971,2.169,2.168,2.169h-3.196c-2.269,0-4.109,1.84-4.109,4.108v9.359c0,2.267,1.84,4.108,4.109,4.108h48.615   c2.27,0,4.107-1.842,4.107-4.108v-9.359C81.5,84.131,79.662,82.291,77.393,82.291z"/>
</g>
<text x="0.0" y="117.5" font-size="5.0" font-weight="bold" font-family="Helvetica Neue, Helvetica, Arial-Unicode, Arial, Sans-serif" fill="#000000">Created by Diego Naive</text><text x="0.0" y="122.5" font-size="5.0" font-weight="bold" font-family="Helvetica Neue, Helvetica, Arial-Unicode, Arial, Sans-serif" fill="#000000">from the Noun Project</text></svg>